<svg xmlns="http://www.w3.org/2000/svg" width="22" height="23" viewBox="0 0 22 23" fill="none">
  <mask id="path-1-inside-1_22_99" fill="white">
    <path d="M12.0741 11.4998L7.53662 6.9623L8.83279 5.66614L14.6665 11.4998L8.83279 17.3335L7.53662 16.0373L12.0741 11.4998Z"/>
  </mask>
  <path d="M12.0741 11.4998L7.53662 6.9623L8.83279 5.66614L14.6665 11.4998L8.83279 17.3335L7.53662 16.0373L12.0741 11.4998Z" fill="#191E29"/>
  <path d="M12.0741 11.4998L13.4883 12.914L14.9025 11.4998L13.4883 10.0856L12.0741 11.4998ZM7.53662 6.9623L6.12241 5.54809L4.70819 6.9623L6.12241 8.37652L7.53662 6.9623ZM8.83279 5.66614L10.247 4.25192L8.83279 2.83771L7.41857 4.25192L8.83279 5.66614ZM14.6665 11.4998L16.0807 12.914L17.4949 11.4998L16.0807 10.0856L14.6665 11.4998ZM8.83279 17.3335L7.41857 18.7477L8.83279 20.1619L10.247 18.7477L8.83279 17.3335ZM7.53662 16.0373L6.12241 14.6231L4.70819 16.0373L6.12241 17.4515L7.53662 16.0373ZM13.4883 10.0856L8.95083 5.54809L6.12241 8.37652L10.6599 12.914L13.4883 10.0856ZM8.95083 8.37652L10.247 7.08035L7.41857 4.25192L6.12241 5.54809L8.95083 8.37652ZM7.41857 7.08035L13.2522 12.914L16.0807 10.0856L10.247 4.25192L7.41857 7.08035ZM13.2522 10.0856L7.41857 15.9193L10.247 18.7477L16.0807 12.914L13.2522 10.0856ZM10.247 15.9193L8.95083 14.6231L6.12241 17.4515L7.41857 18.7477L10.247 15.9193ZM8.95083 17.4515L13.4883 12.914L10.6599 10.0856L6.12241 14.6231L8.95083 17.4515Z" fill="white" mask="url(#path-1-inside-1_22_99)"/>
</svg>